# xmcd
#
# Track frame offsets:
#	150
#	13797
#	27932
#	40612
#	55250
#	67292
#	79347
#	95392
#	106880
#	119872
#	133152
#	150010
#	170457
#	181135
#	196462
#	210975
#	224847
#	239445
#
# Disc length: 3421 seconds
#
# Revision: 0
# Processed by: cddbd v1.5.2PL0 Copyright (c) Steve Scherf et al.
# Submitted via: dBpowerAMP V4.0
#
DISCID=010d5b12
DTITLE=Diverse Artiesten - OLON Country Special
DYEAR=2002
DGENRE=Country
TTITLE0=Louisiana Radio - Rosa Lee
TTITLE1=Cash On Delivery - Addicted To You
TTITLE2=Mark Lavender - My guitar and my bottle of whisky
TTITLE3=John Adams - Goodbye my friend
TTITLE4=Swamp - Zydeco is back again
TTITLE5=Ramblin'  Eddy - You, you and only you
TTITLE6=Eddy Gee - Oh Sophie
TTITLE7=Outbound - Cajun Moon
TTITLE8=Tekielje - Martine
TTITLE9=Harmony Trail - Pocket full of heartaches
TTITLE10=Busted - Three quarter blues
TTITLE11=Ruud Hermans - Be where I belong
TTITLE12=JW Roy and The One Night Band - September
TTITLE13=Shakin'  Arrows - Since you're gone
TTITLE14=Mike de Rijcke - Can't we go back
TTITLE15=Country Trail Band - Don't say
TTITLE16=Nobody Again - Little angel
TTITLE17=Wim Pols - There is a reason
EXTD=OLON Country Special
EXTT0=
EXTT1=
EXTT2=
EXTT3=
EXTT4=
EXTT5=
EXTT6=
EXTT7=
EXTT8=
EXTT9=
EXTT10=
EXTT11=
EXTT12=
EXTT13=
EXTT14=
EXTT15=
EXTT16=
EXTT17=
PLAYORDER=
